<?xml version="1.0" encoding="UTF-8"?>
<!-- Generator: Adobe Illustrator 18.1.1, SVG Export Plug-In . SVG Version: 6.00 Build 0)  -->
<!DOCTYPE svg PUBLIC "-//W3C//DTD SVG 1.1//EN" "http://www.w3.org/Graphics/SVG/1.1/DTD/svg11.dtd">
<svg version="1.1" id="Layer_1" xmlns="http://www.w3.org/2000/svg" xmlns:xlink="http://www.w3.org/1999/xlink" x="0px" y="0px" viewBox="0 0 80 50" enable-background="new 0 0 80 50" xml:space="preserve">
<g>
	<rect fill="#FF3333" width="80" height="50"/>
	<g>
		<g>
			<path fill="#FFFFFF" d="M11.1,6.4c0.3,1,0.5,1.9,0.8,2.9c0.5,1.7,0.6,2,0.9,3.7c0.3-1.8,0.3-2.1,0.7-3.9c0.2-0.9,0.4-1.8,0.6-2.7     h2.2l-2.3,9h-2.3c-0.3-1-0.5-2-0.8-3c-0.5-1.7-0.5-1.7-0.8-3c-0.2,1.1-0.3,1.2-0.8,2.9l-0.9,3H6.2l-2.3-9h2.2     c1,4.3,1.1,4.7,1.3,6.7c0.3-1.8,0.4-2.1,0.9-3.9l0.7-2.8H11.1z"/>
			<path fill="#FFFFFF" d="M20.7,15.6c-2.8,0-4.5-2.2-4.5-4.8c0-2.4,1.5-4.7,4.4-4.7c0.5,0,1.1,0.1,1.6,0.3c2.7,1,2.9,3.9,2.9,4.5     c0,1.6-0.7,2.9-1.7,3.7C22.7,15.4,21.7,15.6,20.7,15.6z M22.3,8.6c-0.4-0.4-1-0.7-1.6-0.7c-1.4,0-2.2,1.2-2.2,2.8     c0,2.1,1.2,2.9,2.2,2.9c1.1,0,2.2-0.8,2.3-2.6C23,10.1,22.8,9.2,22.3,8.6z"/>
			<path fill="#FFFFFF" d="M26,6.4h4c0.9,0,2.1,0,2.9,0.9c0.4,0.5,0.7,1.2,0.7,2c0,1.8-1.2,2.2-1.8,2.5l2.1,3.6h-2.5l-1.8-3.2h-1.4     v3.2H26V6.4z M28.2,8.1v2.4h1.9c0.3,0,1.3,0,1.3-1.2c0-1.1-0.8-1.2-1.3-1.2H28.2z"/>
			<path fill="#FFFFFF" d="M34.8,6.4H37v3.7l3.4-3.7H43l-3.2,3.3l3.4,5.6h-2.5l-2.4-4.1L37,12.7v2.6h-2.1V6.4z"/>
		</g>
		<g>
			<path fill="#FFFFFF" d="M10.1,23.2c0,0,0.1,0,0.3-0.7l1.6,0c0,0.7-0.3,1.2-0.9,2.1c0.2,0.2,0.4,0.4,1,0.4c0.1,0,0.3,0,0.4,0v1.4     H11c-0.2,0-0.5-0.2-1-0.6c-0.4,0.2-1.2,0.7-2.4,0.7c-2.1,0-3.1-1.4-3.1-2.8c0-0.3,0.1-0.7,0.2-1c0.5-1.1,1.4-1.5,2-1.8     c-0.3-0.6-0.6-1-0.6-1.5c0-1.1,0.8-2,2.3-2c1.4,0,2.2,0.9,2.2,1.9c0,1.1-0.9,1.8-1.7,2.1 M7.5,22.2c-0.4,0.3-1,0.7-1,1.4     c0,0.5,0.4,1.3,1.3,1.3c0.5,0,0.9-0.2,1.2-0.4L7.5,22.2z M9,19.3c0-0.3-0.2-0.5-0.6-0.5c-0.3,0-0.6,0.2-0.6,0.5     c0,0.3,0.1,0.5,0.4,1C8.6,20,9,19.7,9,19.3z"/>
			<path fill="#FFFFFF" d="M25,26.6c-2.8,0-4.5-2.2-4.5-4.8c0-2.4,1.5-4.7,4.4-4.7c0.5,0,1.1,0.1,1.6,0.3c2.7,1,2.9,3.9,2.9,4.5     c0,1.6-0.7,2.9-1.7,3.7C27,26.4,26,26.6,25,26.6z M26.6,19.7c-0.4-0.4-1-0.7-1.6-0.7c-1.4,0-2.2,1.2-2.2,2.8     c0,2.1,1.2,2.9,2.2,2.9c1.1,0,2.2-0.8,2.3-2.6C27.3,21.2,27.1,20.2,26.6,19.7z"/>
			<path fill="#FFFFFF" d="M17.5,24.7c-1,0-2.2-0.8-2.2-2.9c0-1.6,0.9-2.8,2.2-2.8c0.6,0,1.2,0.3,1.6,0.7c0.1,0.1,0.2,0.3,0.3,0.4     l1.2-1.8c-0.4-0.3-0.8-0.6-1.4-0.9c-0.5-0.2-1.1-0.3-1.6-0.3c-2.9,0-4.4,2.3-4.4,4.7c0,2.6,1.6,4.8,4.4,4.8     c0.9,0,1.9-0.2,2.8-0.9c0.1-0.1,0.1-0.1,0.2-0.2l-1.2-1.8C18.9,24.4,18.2,24.7,17.5,24.7z"/>
		</g>
	</g>
</g>
</svg>