<svg xmlns="http://www.w3.org/2000/svg" viewBox="0 0 40 40"><defs><style>.cls-1{fill:#ff3b3f;}</style></defs><title>Asset 1</title><g id="Layer_2" data-name="Layer 2"><g id="Layer_1-2" data-name="Layer 1"><path class="cls-1" d="M23.78,24.72a.9.9,0,0,1-.87.93h-.13a1,1,0,1,1,0-1.93.94.94,0,0,1,1,1Zm-3.53,0a.9.9,0,0,1-.87.93h-.13a1,1,0,1,1,0-1.93.94.94,0,0,1,1,1Zm.84,4a2.83,2.83,0,0,1-2-.87.68.68,0,1,1,1-.93,1.51,1.51,0,0,0,2.13,0,.68.68,0,0,1,.93,1h0A2.83,2.83,0,0,1,21.09,28.69Zm4.23-6.78h-.7A4.78,4.78,0,1,1,17.4,22h-.48a2.22,2.22,0,0,1-1-.25,6.11,6.11,0,1,0,10-.39A.66.66,0,0,1,25.32,21.91Zm-6.13-1.23A4.79,4.79,0,0,0,17.4,22l5-.09h2.25a4.77,4.77,0,0,0-1.9-1.3h-.41Zm-2.25,1.38h.46a4.79,4.79,0,0,1,1.8-1.37H16.79a6.15,6.15,0,0,0-.89,1.1,2.22,2.22,0,0,0,1,.25h0Zm12.8-5.77s0-.08,0-.13a2.1,2.1,0,0,1,.76-1.57l0,0a5.49,5.49,0,0,0-4.34-1.32,5.62,5.62,0,0,0-3.77,2.22,6.16,6.16,0,0,0-2.82-4,8.37,8.37,0,0,0-6.05-1.12,2.15,2.15,0,0,1-.25,1.58l.09.06a5.79,5.79,0,0,1,3.41,4.27,5.91,5.91,0,0,0-5.63.73,4.32,4.32,0,0,0-1.72,2.31,2,2,0,0,1,.92,1.35l.1,0,.28-.12A4.3,4.3,0,0,1,13.37,20a4.27,4.27,0,0,1,2.2,1.59l.16.15.18.12a6.15,6.15,0,0,1,.89-1.1h-.21a4.94,4.94,0,0,0-3.8-2.13,5.62,5.62,0,0,0-1.72.3,3.47,3.47,0,0,1,.82-.8,4.6,4.6,0,0,1,4.44-.56l.35.08.36,0h.22a.65.65,0,0,0,.51-.14A.66.66,0,0,0,18,17v-.23A2.33,2.33,0,0,0,18,16a7,7,0,0,0-2.84-4.46,7.32,7.32,0,0,1,3.63,1.1,4.87,4.87,0,0,1,2.3,3.48,1.68,1.68,0,0,0,.45.82.66.66,0,0,0,.44.29.65.65,0,0,0,.51-.12l.11-.05.1-.05a1.84,1.84,0,0,0,.61-.53,4.3,4.3,0,0,1,3-1.89,4,4,0,0,1,2.65.56,6.18,6.18,0,0,0-4.2,5.1A6.15,6.15,0,0,1,26,21.43a.64.64,0,0,0,0-.15,5.32,5.32,0,0,1,1.19-3.4A5.71,5.71,0,0,1,29.74,16.29Zm-5,3.94a.72.72,0,0,1-.06.35h-2a4.77,4.77,0,0,1,1.9,1.3h.7a.66.66,0,0,0,.67-.45A6.15,6.15,0,0,0,24.76,20.23ZM20,40A20,20,0,1,1,40,20,20,20,0,0,1,20,40ZM20,1.45A18.55,18.55,0,1,0,38.55,20,18.55,18.55,0,0,0,20,1.45ZM8.36,23.08h0a2,2,0,0,1-2-2A2.06,2.06,0,0,1,7,19.6,2.13,2.13,0,0,1,8.44,19a2,2,0,0,1,2,2v.05A2,2,0,0,1,8.36,23.08Zm0-2.75a.72.72,0,0,0-.49.22.74.74,0,0,0-.24.52.71.71,0,0,0,.72.68h0a.64.64,0,0,0,.71-.67h0a.7.7,0,0,0-.65-.75H8.36Zm3.15-7.44h0a2,2,0,0,1-2-2A2.07,2.07,0,0,1,10.1,9.4a2,2,0,1,1,1.42,3.49Zm0-2.75a.78.78,0,0,0-.73.74.7.7,0,0,0,.72.68h0a.64.64,0,0,0,.7-.67h0a.7.7,0,0,0-.65-.75h0Zm20.22,8h0a2,2,0,0,1-2-2,2.11,2.11,0,0,1,2.14-2.07,2,2,0,0,1,2,2v.05a2,2,0,0,1-2,2Zm0-2.75a.78.78,0,0,0-.73.74.7.7,0,0,0,.72.68h0a.64.64,0,0,0,.7-.67h0a.7.7,0,0,0-.65-.75h0Z"/></g></g></svg>