<?xml version="1.0" encoding="utf-8"?>
<!-- Generator: Adobe Illustrator 19.2.1, SVG Export Plug-In . SVG Version: 6.00 Build 0)  -->
<svg version="1.1" id="Layer_1" xmlns="http://www.w3.org/2000/svg" xmlns:xlink="http://www.w3.org/1999/xlink" x="0px" y="0px"
	 viewBox="0 0 40 40" style="enable-background:new 0 0 40 40;" xml:space="preserve">
<style type="text/css">
	.st0{fill:#EF4245;}
</style>
<path class="st0" d="M20,40C9,40,0,31,0,20S9,0,20,0s20,9,20,20S31,40,20,40z M20,1.4C9.8,1.4,1.4,9.8,1.4,20S9.8,38.6,20,38.6
	S38.6,30.2,38.6,20S30.2,1.4,20,1.4z"/>
<path class="st0" d="M24.7,22c-0.6-1.3-1.6-2.2-3.2-2.6c-0.3-0.1-0.5-0.1-0.8-0.2c-0.1,0-0.1,0-0.2,0v-5.4c1.1,0.2,1.9,0.6,2.5,1.4
	c0.2,0.2,0.3,0.4,0.5,0.4c0.2,0.1,0.4,0,0.6-0.1c0.2-0.1,0.3-0.3,0.3-0.5c0-0.2-0.1-0.5-0.3-0.8c-0.6-0.9-1.5-1.4-2.5-1.7
	c-0.3-0.1-0.6-0.2-1-0.2c-0.1,0-0.2,0-0.2,0l0-0.4c0-0.4,0-0.9,0-1.3c0-0.8,0-1.2-0.2-1.4c-0.2-0.2-0.4-0.2-0.6-0.2
	c-0.2,0-0.4,0-0.6,0.2C19,9.3,18.9,9.6,19,10.5c0,0.4,0,0.8,0,1.2l0,0.5c0,0,0,0,0,0.1c-0.8,0.2-1.5,0.4-2.1,0.8
	c-1.2,0.8-1.8,1.8-1.9,3c-0.1,1.5,0.5,2.7,1.9,3.7c0.6,0.4,1.3,0.7,2,0.8v5.4c0,0,0,0-0.1,0c-0.3-0.1-0.5-0.2-0.8-0.3
	c-0.5-0.2-0.8-0.5-1.2-1.1c-0.1-0.2-0.3-0.3-0.5-0.3c-0.2,0-0.4,0-0.6,0.2c-0.2,0.1-0.3,0.3-0.3,0.5c0,0.2,0.1,0.4,0.2,0.6
	c0.4,0.4,0.7,0.8,1.1,1.1c0.6,0.4,1.2,0.7,2.2,0.9v2.5c0,0.3,0.1,0.6,0.3,0.7c0.1,0.1,0.3,0.2,0.5,0.2c0,0,0,0,0,0
	c0.5,0,0.8-0.4,0.8-0.9l0-2.4c1-0.1,2-0.4,2.8-1C24.9,25.6,25.5,23.7,24.7,22z M22.9,24.9c-0.6,0.7-1.3,1.1-2.4,1.2v-5.4
	c0.5,0.1,1,0.2,1.4,0.4c0.7,0.3,1.1,0.8,1.3,1.4C23.6,23.4,23.5,24.2,22.9,24.9z M18.9,13.9v5.2c-0.6-0.1-1.4-0.5-1.9-1.1
	c-0.4-0.5-0.6-1.1-0.5-1.8c0-0.3,0.2-0.7,0.4-1C17.4,14.5,18,14.1,18.9,13.9z"/>
</svg>
