<svg id="Layer_1" data-name="Layer 1" xmlns="http://www.w3.org/2000/svg" viewBox="0 0 40 40"><defs><style>.cls-1{fill:#ef4245;}</style></defs><title>echo</title><path class="cls-1" d="M20,40A20,20,0,1,1,40,20,20,20,0,0,1,20,40ZM20,1.45A18.55,18.55,0,1,0,38.55,20,18.58,18.58,0,0,0,20,1.45Z"/><path class="cls-1" d="M15.09,8.39a0.43,0.43,0,0,0-.28.11l0.28,0.32-0.31-.3-0.1.09L14.35,9l-0.12.13a0.43,0.43,0,0,0,0,.59,10.53,10.53,0,0,1,3.12,7.54,10.64,10.64,0,0,1-3.16,7.54,0.43,0.43,0,0,0,0,.61l0.56,0.54a0.43,0.43,0,0,0,.6,0A12.24,12.24,0,0,0,19,17.22a12.08,12.08,0,0,0-3.61-8.7A0.43,0.43,0,0,0,15.09,8.39Zm2.68,8.83h0a11.05,11.05,0,0,0-.2-2.2A11.05,11.05,0,0,1,17.77,17.22Zm0.73,1.29A12,12,0,0,1,18,20.74a12,12,0,0,0,.47-2.23q0.06-.57.08-1.14Q18.56,17.94,18.5,18.51Z"/><path class="cls-1" d="M22.67,22.77a10.55,10.55,0,0,1,3.15-7.52,0.43,0.43,0,0,0,0-.61l-0.27-.26-0.29-.29a0.43,0.43,0,0,0-.6,0A12.28,12.28,0,0,0,21,22.8a12.08,12.08,0,0,0,3.63,8.68,0.43,0.43,0,0,0,.3.12h0a0.43,0.43,0,0,0,.31-0.14l0.53-.57a0.43,0.43,0,0,0,0-.59A10.52,10.52,0,0,1,22.67,22.77ZM22.3,21.65a11,11,0,0,1,.43-2.12A11,11,0,0,0,22.3,21.65Zm1.81-5a10.85,10.85,0,0,0-1,1.87,10.86,10.86,0,0,1,1-1.87,12.24,12.24,0,0,1,1.4-1.7A12.24,12.24,0,0,0,24.11,16.66Zm0.82,14.52,0.53-.57h0Z"/><path class="cls-1" d="M13,11.38a0.43,0.43,0,0,0-.6,0l-0.12.14L12,11.86a0.56,0.56,0,0,0,0,.82l0.14,0.16a7.61,7.61,0,0,1,.61.74,6.21,6.21,0,0,1,1.06,3A6.36,6.36,0,0,1,12,21.7a0.59,0.59,0,0,0-.07.77c0.12,0.14.25,0.27,0.39,0.4L12.42,23A0.43,0.43,0,0,0,13,23a7.76,7.76,0,0,0,2.46-5.86A7.78,7.78,0,0,0,13,11.38Zm-0.76.89a0.22,0.22,0,0,0,.07.12A0.22,0.22,0,0,1,12.22,12.27Z"/><path class="cls-1" d="M27.9,27.13a7.07,7.07,0,0,1-.65-0.8,6.3,6.3,0,0,1-1-3.55,6.15,6.15,0,0,1,1-3.39,10.65,10.65,0,0,1,.65-0.87l0.34-.43a0.43,0.43,0,0,0,0-.56L28,17.41l-0.3-.31a0.57,0.57,0,0,0-.43-0.21,0.55,0.55,0,0,0-.44.23l-0.37.44a7.61,7.61,0,0,0-.8,1.07,8.08,8.08,0,0,0-.48,7.4,7.08,7.08,0,0,0,1.67,2.45,0.62,0.62,0,0,0,.43.2,0.58,0.58,0,0,0,.46-0.25A2.8,2.8,0,0,1,28,28.16a0.58,0.58,0,0,0,0-.86Zm-0.48-9.75a0.15,0.15,0,0,0-.11-0.06h0A0.16,0.16,0,0,1,27.41,17.39ZM25,22.31a7.37,7.37,0,0,0,0,.88A7.33,7.33,0,0,1,25,22.31Zm2.2,5.87a6.62,6.62,0,0,1-1.57-2.3,6.62,6.62,0,0,0,1.57,2.3,0.21,0.21,0,0,0,.13.07h0A0.21,0.21,0,0,1,27.18,28.18Z"/><path class="cls-1" d="M31,21.58a1.7,1.7,0,0,0-1.21-.51h0a1.71,1.71,0,0,0-1.71,1.69A1.73,1.73,0,0,0,28.6,24a1.69,1.69,0,0,0,1.2.49h0A1.71,1.71,0,0,0,31,21.58Zm-1.7,1.2a0.47,0.47,0,0,1,.14-0.34,0.48,0.48,0,0,1,.34-0.14h0a0.49,0.49,0,0,1,.48.49,0.47,0.47,0,0,1-.14.33,0.49,0.49,0,0,1-.34.14h0A0.49,0.49,0,0,1,29.32,22.79Z"/><path class="cls-1" d="M11.4,16a1.7,1.7,0,0,0-1.2-.5h0A1.71,1.71,0,0,0,9,16a1.68,1.68,0,0,0-.49,1.2A1.72,1.72,0,0,0,9,18.44a1.69,1.69,0,0,0,1.19.49h0A1.71,1.71,0,0,0,11.4,16Zm-1.21,1.7a0.49,0.49,0,0,1-.48-0.48,0.47,0.47,0,0,1,.14-0.34,0.49,0.49,0,0,1,.34-0.15h0a0.49,0.49,0,0,1,.48.48,0.47,0.47,0,0,1-.14.33,0.49,0.49,0,0,1-.35.15h0Z"/></svg>