<svg id="Layer_1" data-name="Layer 1" xmlns="http://www.w3.org/2000/svg" viewBox="0 0 40 40"><defs><style>.cls-1{fill:#ef4245;}</style></defs><title>gender</title><path class="cls-1" d="M20,40A20,20,0,1,1,40,20,20,20,0,0,1,20,40ZM20,1.45A18.55,18.55,0,1,0,38.55,20,18.58,18.58,0,0,0,20,1.45Z"/><path class="cls-1" d="M20.08,19.18a0.81,0.81,0,0,0-.74-0.3H11.17a0.67,0.67,0,0,0-.67,1l4.14,8.93a0.69,0.69,0,0,0,.63.5h0a0.72,0.72,0,0,0,.64-0.53L20,20A0.79,0.79,0,0,0,20.08,19.18Zm-1.52,1-3.28,7.08L12,20.17h6.55Z"/><path class="cls-1" d="M29.51,28.38l-4.16-9a0.63,0.63,0,0,0-.7-0.46,0.9,0.9,0,0,0-.55.46q-2.09,4.48-4.17,9a0.74,0.74,0,0,0,0,.73,0.75,0.75,0,0,0,.69.28h8.29a0.71,0.71,0,0,0,.65-0.28A0.69,0.69,0,0,0,29.51,28.38ZM28,28.09H21.44L24.71,21Z"/><path class="cls-1" d="M24.71,17.78h0a3.57,3.57,0,0,0,0-7.14h0a3.57,3.57,0,0,0-2.54,1.08,3.48,3.48,0,0,0-1,2.48A3.6,3.6,0,0,0,24.71,17.78Zm-2.31-3.62a2.23,2.23,0,0,1,.67-1.59,2.32,2.32,0,0,1,1.65-.68h0A2.3,2.3,0,0,1,27,14.23a2.27,2.27,0,0,1-.69,1.62,2.3,2.3,0,0,1-1.63.68h0A2.34,2.34,0,0,1,22.39,14.16Z"/><path class="cls-1" d="M15.27,17.78h0a3.59,3.59,0,0,0,3.58-3.54,3.59,3.59,0,0,0-3.58-3.6h0A3.57,3.57,0,0,0,15.27,17.78ZM13,14.19a2.3,2.3,0,0,1,2.28-2.3h0a2.31,2.31,0,0,1,2.32,2.32,2.34,2.34,0,0,1-2.3,2.32h0a2.25,2.25,0,0,1-1.58-.64A2.38,2.38,0,0,1,13,14.19Z"/></svg>