<?xml version="1.0" encoding="utf-8"?>
<!-- Generator: Adobe Illustrator 19.2.1, SVG Export Plug-In . SVG Version: 6.00 Build 0)  -->
<svg version="1.1" id="Layer_1" xmlns="http://www.w3.org/2000/svg" xmlns:xlink="http://www.w3.org/1999/xlink" x="0px" y="0px"
	 viewBox="0 0 100 100" style="enable-background:new 0 0 100 100;" xml:space="preserve">
<path d="M61.2,98.7c7.1-1.6,13.4-4.7,18.9-8.8c0.3-0.2,0.6-0.5,1-0.7c0.8-0.6,1.5-1.2,2.2-1.9c0.4-0.4,0.8-0.8,1.3-1.1
	c0.6-0.6,1.3-1.3,1.9-1.9c0.4-0.4,0.8-0.9,1.2-1.4c0.6-0.7,1.2-1.3,1.7-2c0.4-0.5,0.7-0.9,1.1-1.4c0.5-0.7,1.1-1.5,1.6-2.3
	c0.3-0.4,0.5-0.9,0.8-1.3c0.5-0.9,1.1-1.7,1.5-2.7c0.1-0.2,0.2-0.4,0.3-0.6c1.7-3.4,3-6.9,4-10.6c0.1-0.4,0.2-0.8,0.3-1.2
	c0.2-0.9,0.4-1.9,0.5-2.8c0.1-0.6,0.2-1.3,0.3-1.9c0.1-0.8,0.2-1.6,0.2-2.4c0.1-0.9,0.1-1.7,0.1-2.6c0-0.7,0-1.3,0-2
	c0-1.1-0.1-2.3-0.2-3.4c0-0.4-0.1-0.8-0.1-1.2c-0.2-1.5-0.4-3-0.7-4.4c0-0.1,0-0.1,0-0.2c-1-4.8-2.7-9.4-4.9-13.6
	c-0.1-0.2-0.2-0.4-0.3-0.5c-0.6-1.1-1.3-2.3-2-3.4c-0.2-0.3-0.4-0.6-0.7-1c-0.6-0.9-1.3-1.8-2-2.7c-0.3-0.4-0.6-0.8-1-1.2
	c-0.6-0.7-1.3-1.5-2-2.2c-0.4-0.4-0.8-0.9-1.2-1.3c-0.6-0.6-1.3-1.2-1.9-1.8c-0.5-0.4-1-0.9-1.5-1.3c-0.6-0.5-1.2-0.9-1.8-1.3
	c-2.8-2.1-5.8-3.8-9-5.3c-0.2-0.1-0.4-0.2-0.5-0.3C69.1,3.8,68,3.4,67,3c-0.4-0.1-0.8-0.3-1.2-0.4c-1-0.3-2-0.6-3-0.9
	c-0.5-0.1-1-0.3-1.5-0.4c-0.9-0.2-1.9-0.4-2.8-0.6c-0.9-0.2-1.8-0.3-2.7-0.4c-0.3,0-0.6-0.1-0.9-0.1C53.4,0.1,51.8,0,50.3,0
	c-0.1,0-0.3,0-0.4,0c-1.6,0-3.2,0.1-4.8,0.2c-0.1,0-0.2,0-0.4,0c-1.5,0.2-2.9,0.4-4.4,0.7c-0.2,0-0.5,0.1-0.7,0.1
	c-1.3,0.3-2.6,0.6-3.8,1c-0.4,0.1-0.8,0.2-1.1,0.3c-1.1,0.4-2.2,0.8-3.3,1.2C31,3.8,30.5,4,30,4.2c-1,0.4-2,0.9-2.9,1.4
	c-0.5,0.2-1,0.5-1.4,0.8c-1,0.5-1.9,1.1-2.8,1.7c-0.4,0.3-0.8,0.5-1.2,0.8c-1,0.7-1.9,1.4-2.9,2.1c-0.3,0.2-0.6,0.5-0.9,0.7
	c-1,0.9-2,1.7-2.9,2.7c-0.2,0.2-0.3,0.3-0.5,0.5c-1,1-2,2.1-3,3.3c0,0-0.1,0.1-0.1,0.1c-4,4.9-7.1,10.5-9.1,16.7
	c0,0.1-0.1,0.3-0.1,0.5c-0.4,1.3-0.8,2.7-1,4.1C1,40,0.9,40.5,0.8,41c-0.1,0.7-0.2,1.4-0.3,2.1c-0.1,0.5-0.1,1-0.2,1.5
	c0,0.2-0.1,0.4-0.1,0.6C0.1,46.8,0,48.4,0,50c0,2.3,0.2,4.6,0.5,6.8c0.2,1,0.3,2,0.5,3c0.5,2.5,1.2,5,2.1,7.4
	c0.1,0.2,0.2,0.4,0.2,0.6c0.4,1.1,0.8,2.1,1.3,3.1c0.1,0.3,0.3,0.5,0.4,0.8c2.2,4.5,5,8.6,8.3,12.2c0.1,0.1,0.2,0.2,0.3,0.3
	c0.8,0.9,1.7,1.7,2.6,2.5c0.1,0.1,0.2,0.2,0.3,0.3c4.7,4.3,10.2,7.6,16.3,9.9c0.2,0.1,0.3,0.1,0.5,0.2c1.1,0.4,2.3,0.8,3.4,1.1
	c0.1,0,0.3,0.1,0.4,0.1c2.5,0.7,5,1.2,7.7,1.4c0.2,0,0.3,0.1,0.5,0.1c1.6,0.2,3.2,0.2,4.8,0.2c2.6,0,5.2-0.3,7.7-0.7
	C58.9,99.1,60,98.9,61.2,98.7z M59.4,90c-0.4-0.1-0.9-0.6-1-1c-0.7-2.8-1.4-5.6-2.2-8.8c2.2,0.5,4.2,1.2,6.2,1.4
	c2.9,0.3,4.2,1.7,4.7,4.5c0.3,2,1.1,3.9,1.7,6.2C65.4,91.5,62.4,90.8,59.4,90z M31.2,33.2c3.2,0.8,6.1,1.5,9,2.3
	c0.3,0.1,0.7,0.6,0.8,1c0.8,2.6,1.6,5.3,2.6,8.3c-2.2-0.5-4.2-1.1-6.2-1.2c-2.9-0.2-4.3-1.6-4.6-4.4C32.5,37.2,31.8,35.4,31.2,33.2z
	 M31.7,44.8c-0.8,3.3-1.5,6.2-2.2,9.1c-0.1,0.3-0.4,0.8-0.7,0.9c-2.9,0.8-5.9,1.6-9.1,2.5c0.8-3.2,1.5-6.1,2.3-9
	c0.1-0.4,0.6-0.7,0.9-0.9C25.7,46.5,28.5,45.7,31.7,44.8z M45.6,47.3c0.1-0.3,0.6-0.6,0.9-0.7c2.8-0.8,5.6-1.6,8.9-2.6
	c-0.8,3.2-1.5,6.1-2.2,9c-0.1,0.3-0.5,0.7-0.8,0.8c-2.9,0.8-5.7,1.6-9,2.5C44.1,53.2,44.8,50.2,45.6,47.3z M55.2,32.5
	c3.2,0.6,6.1,1.2,9,1.8c0.3,0.1,0.6,0.5,0.7,0.8c0.9,2.8,1.7,5.5,2.6,8.7c-2-0.4-3.8-1-5.6-1.1c-3.4-0.2-5.2-1.7-5.5-5.2
	C56.4,36,55.7,34.4,55.2,32.5z M69.6,47c0.1-0.4,0.6-0.8,1.1-0.9c2.8-0.8,5.5-1.5,8.7-2.4c-0.4,2-1,3.7-1.2,5.5
	c-0.3,3.1-1.7,4.8-5,5.1c-1.8,0.2-3.5,0.9-5.7,1.5C68.3,52.6,68.9,49.8,69.6,47z M64.6,58.4c0.3,0.1,0.7,0.5,0.8,0.8
	c0.8,2.8,1.6,5.6,2.5,8.8c-3.3-0.7-6.2-1.4-9.1-2.1c-0.4-0.1-0.9-0.5-1-0.8c-0.8-2.8-1.5-5.7-2.4-8.8C58.7,57,61.6,57.7,64.6,58.4z
	 M77.9,76.9c-0.1,0.4-0.6,0.9-1,1c-2.9,0.9-5.9,1.7-9.2,2.7c0.8-3.4,1.6-6.6,2.4-9.8c0.1-0.3,0.5-0.6,0.8-0.7
	c2.9-0.8,5.9-1.6,9.2-2.5C79.4,71,78.7,74,77.9,76.9z M82.9,65.4c-0.3-0.1-0.6-0.4-0.6-0.7c-0.8-2.9-1.5-5.8-2.4-9
	c3.2,0.8,6.2,1.5,9.1,2.2c0.3,0.1,0.6,0.5,0.7,0.9c0.9,2.9,1.8,5.7,2.8,9C89.1,67,86,66.2,82.9,65.4z M90.4,37.2
	c0.3,2,1.1,3.9,1.7,6.2c-3.3-0.8-6.4-1.4-9.4-2.2c-0.4-0.1-0.9-0.7-1.1-1.1c-0.8-2.8-1.6-5.5-2.5-8.7c2.3,0.5,4.4,1.2,6.5,1.4
	C88.6,33.1,90,34.4,90.4,37.2z M70,21.8c3-0.9,6.1-1.7,9.5-2.6c-0.9,3.4-1.7,6.4-2.5,9.4c-0.1,0.2-0.4,0.5-0.6,0.6
	c-3,0.9-6,1.8-9.3,2.8c0.8-3.3,1.5-6.3,2.2-9.3C69.4,22.3,69.7,21.9,70,21.8z M64.2,10.7c0.3,0.1,0.7,0.5,0.8,0.8
	c0.9,2.7,1.7,5.5,2.6,8.6c-2.5-0.5-4.7-1.1-6.9-1.4c-2.2-0.3-3.5-1.2-3.8-3.5c-0.4-2.1-1.2-4.2-1.9-6.8C58.3,9.2,61.2,9.9,64.2,10.7
	z M46.2,23.1c2.9-0.9,5.8-1.7,9.1-2.6c-0.8,3.2-1.4,6-2.2,8.9c-0.1,0.3-0.4,0.7-0.8,0.8c-2.9,0.9-5.8,1.8-9.1,2.7
	c0.9-3.3,1.6-6.3,2.4-9.2C45.7,23.5,45.9,23.2,46.2,23.1z M39.9,11.2c0.3,0.1,0.7,0.6,0.8,1c0.8,2.8,1.6,5.6,2.5,8.8
	c-2.2-0.5-4.1-1.2-6-1.3c-3.2-0.2-4.6-1.8-5-4.9c-0.3-1.9-1-3.7-1.6-5.9C33.9,9.7,36.9,10.4,39.9,11.2z M21.1,24.5
	c0.1-0.3,0.5-0.7,0.8-0.8c2.9-0.8,5.9-1.6,9.2-2.5c-0.8,3.3-1.5,6.4-2.3,9.4c-0.1,0.3-0.7,0.6-1.1,0.7c-2.8,0.8-5.6,1.5-8.8,2.4
	C19.7,30.4,20.4,27.5,21.1,24.5z M12.4,34.6c3.4,0.2,5.1,1.9,5.6,5.2c0.3,1.7,1,3.4,1.6,5.5c-3.3-0.8-6.3-1.4-9.2-2.1
	c-0.4-0.1-0.9-0.6-1-1c-0.8-2.8-1.5-5.6-2.4-8.7C9,33.9,10.7,34.5,12.4,34.6z M10.1,66.4c-0.8-2.8-1.6-5.7-2.4-8.8
	c3.2,0.8,6.1,1.5,9,2.2c0.3,0.1,0.6,0.6,0.7,0.9c0.9,2.8,1.7,5.6,2.7,8.8c-3.3-0.8-6.3-1.5-9.2-2.3C10.6,67.1,10.2,66.8,10.1,66.4z
	 M29.4,77.6c-0.1,0.4-0.7,0.8-1.1,0.9c-2.7,0.8-5.4,1.5-8.5,2.4c0.8-3.2,1.5-6,2.2-8.9c0.1-0.3,0.4-0.7,0.6-0.7
	c2.9-0.8,5.9-1.6,9.1-2.5C30.9,71.9,30.2,74.8,29.4,77.6z M40,58.8c0.5,0.1,1,0.6,1.1,1.1c0.9,2.6,1.6,5.3,2.6,8.3
	c-3.3-0.8-6.2-1.5-9.2-2.3c-0.2-0.1-0.4-0.4-0.5-0.7c-0.8-2.7-1.5-5.4-2.3-8.4C34.8,57.5,37.4,58.1,40,58.8z M38.7,91.3
	c-3.5-0.3-5.2-2-5.5-5.4c-0.2-1.6-0.8-3.2-1.4-5.2c3.3,0.8,6.2,1.5,9.1,2.2c0.4,0.1,0.7,0.6,0.9,0.9c0.9,2.8,1.7,5.6,2.7,8.8
	C42.4,92.1,40.6,91.4,38.7,91.3z M53.7,76.9c-0.1,0.3-0.6,0.7-0.9,0.9c-2.8,0.8-5.6,1.6-8.8,2.5c0.7-3.3,1.4-6.3,2.2-9.3
	c0.1-0.3,0.6-0.6,1-0.7c2.8-0.8,5.6-1.5,8.7-2.4C55.1,71.1,54.4,74,53.7,76.9z"/>
</svg>
