<?xml version="1.0" encoding="utf-8"?>
<!-- Generator: Adobe Illustrator 23.0.1, SVG Export Plug-In . SVG Version: 6.00 Build 0)  -->
<svg version="1.1" id="Layer_1" xmlns="http://www.w3.org/2000/svg" xmlns:xlink="http://www.w3.org/1999/xlink" x="0px" y="0px"
	 viewBox="0 0 40 40" style="enable-background:new 0 0 40 40;" xml:space="preserve">
<style type="text/css">
	.st0{fill:#FF3B3F;}
</style>
<path class="st0" d="M20,40C8.97,40,0,31.03,0,20S8.97,0,20,0s20,8.97,20,20S31.03,40,20,40z M20,1.45C9.77,1.45,1.45,9.77,1.45,20
	S9.77,38.55,20,38.55S38.55,30.23,38.55,20S30.23,1.45,20,1.45z"/>
<g>
	<path class="st0" d="M12.29,18.89c-0.36,0-0.65-0.29-0.65-0.65v-8.15c0-0.36,0.29-0.65,0.65-0.65s0.65,0.29,0.65,0.65v8.15
		C12.94,18.59,12.65,18.89,12.29,18.89z"/>
	<path class="st0" d="M27.1,10.74h-14.8c-0.36,0-0.65-0.29-0.65-0.65s0.29-0.65,0.65-0.65h14.8c0.36,0,0.65,0.29,0.65,0.65
		S27.46,10.74,27.1,10.74z"/>
	<path class="st0" d="M27.1,30.56c-0.36,0-0.65-0.29-0.65-0.65v-2.25c0-0.36,0.29-0.65,0.65-0.65s0.65,0.29,0.65,0.65v2.25
		C27.75,30.27,27.46,30.56,27.1,30.56z"/>
	<path class="st0" d="M12.29,30.56c-0.36,0-0.65-0.29-0.65-0.65v-7.47c0-0.36,0.29-0.65,0.65-0.65s0.65,0.29,0.65,0.65v7.47
		C12.94,30.27,12.65,30.56,12.29,30.56z"/>
	<path class="st0" d="M27.1,30.56h-14.8c-0.36,0-0.65-0.29-0.65-0.65s0.29-0.65,0.65-0.65h14.8c0.36,0,0.65,0.29,0.65,0.65
		S27.46,30.56,27.1,30.56z"/>
	<path class="st0" d="M22.95,21.01H9.34c-0.36,0-0.65-0.29-0.65-0.65s0.29-0.65,0.65-0.65h13.61c0.36,0,0.65,0.29,0.65,0.65
		S23.31,21.01,22.95,21.01z"/>
	<path class="st0" d="M27.1,24.07c-0.36,0-0.65-0.29-0.65-0.65v-6.09c0-0.36,0.29-0.65,0.65-0.65s0.65,0.29,0.65,0.65v6.09
		C27.75,23.78,27.46,24.07,27.1,24.07z"/>
	<path class="st0" d="M27.1,13.7c-0.36,0-0.65-0.29-0.65-0.65v-2.96c0-0.36,0.29-0.65,0.65-0.65s0.65,0.29,0.65,0.65v2.96
		C27.75,13.41,27.46,13.7,27.1,13.7z"/>
	<path class="st0" d="M29.75,15.87H16.14c-0.36,0-0.65-0.29-0.65-0.65s0.29-0.65,0.65-0.65h13.61c0.36,0,0.65,0.29,0.65,0.65
		S30.11,15.87,29.75,15.87z"/>
	<path class="st0" d="M30.66,26.19H17.05c-0.36,0-0.65-0.29-0.65-0.65s0.29-0.65,0.65-0.65h13.61c0.36,0,0.65,0.29,0.65,0.65
		S31.02,26.19,30.66,26.19z"/>
</g>
</svg>
