<?xml version="1.0" encoding="utf-8"?>
<!-- Generator: Adobe Illustrator 21.1.0, SVG Export Plug-In . SVG Version: 6.00 Build 0)  -->
<svg version="1.1" id="Layer_1" xmlns="http://www.w3.org/2000/svg" xmlns:xlink="http://www.w3.org/1999/xlink" x="0px" y="0px"
	 viewBox="0 0 40 40" style="enable-background:new 0 0 40 40;" xml:space="preserve">
<style type="text/css">
	.st0{fill:none;}
	.st1{fill:#FF3B3F;}
</style>
<title>fun</title>
<path class="st0" d="M24.8,20.2c0.3-2.4,1.9-4.4,4.2-5.1c-0.8-0.5-1.7-0.7-2.6-0.6c-1.2,0.2-2.3,0.9-3,1.9c-0.2,0.2-0.4,0.4-0.6,0.5
	l-0.2,0.1c-0.1,0.1-0.3,0.2-0.5,0.1c-0.2,0-0.3-0.1-0.4-0.3c-0.2-0.2-0.4-0.5-0.5-0.8c-0.2-1.4-1.1-2.7-2.3-3.5
	c-1.1-0.7-2.3-1.1-3.6-1.1c1.5,1.1,2.5,2.7,2.8,4.5c0,0.3,0,0.5,0,0.8V17c0,0.2-0.1,0.4-0.2,0.5c-0.1,0.1-0.3,0.2-0.5,0.1H17
	c-0.2,0-0.5,0-0.7-0.1c-1.5-0.6-3.2-0.4-4.4,0.6c-0.3,0.2-0.6,0.5-0.8,0.8c0.6-0.2,1.1-0.3,1.7-0.3c1.5,0.1,2.9,0.9,3.8,2.1h0.2
	C19,18.6,22.4,18.4,24.8,20.2z"/>
<path class="st0" d="M19.2,20.7l3.1-0.1h0.4C21.6,20.2,20.3,20.2,19.2,20.7z"/>
<path class="st0" d="M17.4,22c-0.7,0.8-1.1,1.9-1.1,3c0,2.6,2.1,4.8,4.8,4.8c2.6,0,4.8-2.1,4.8-4.8c0-1.2-0.4-2.3-1.2-3.2h-2.2
	L17.4,22z"/>
<path class="st1" d="M23.8,24.7c0,0.5-0.4,0.9-0.9,0.9c0,0-0.1,0-0.1,0c-0.5,0-1-0.4-1-0.9c0-0.6,0.4-1,1-1c0.5,0,1,0.4,1,0.9
	C23.8,24.6,23.8,24.7,23.8,24.7z M20.2,24.7c0,0.5-0.4,0.9-0.9,0.9c0,0-0.1,0-0.1,0c-0.5,0-1-0.4-1-0.9c0-0.6,0.4-1,1-1
	c0.5,0,1,0.4,1,0.9C20.3,24.6,20.3,24.7,20.2,24.7z M21.1,28.7c-0.8,0-1.5-0.3-2-0.9c-0.3-0.3-0.2-0.7,0-1s0.7-0.2,1,0
	c0.6,0.6,1.5,0.6,2.1,0c0.3-0.3,0.7-0.2,1,0s0.2,0.7,0,1l0,0C22.6,28.4,21.9,28.7,21.1,28.7z M25.3,21.9h-0.7c1.8,2,1.6,5-0.4,6.7
	s-5,1.6-6.7-0.4c-1.6-1.8-1.6-4.4-0.1-6.3h-0.5c-0.3,0-0.7-0.1-1-0.2c-1.8,2.8-1,6.6,1.8,8.4c2.8,1.8,6.6,1,8.4-1.8
	c1.4-2.2,1.3-5-0.3-7C25.9,21.7,25.6,21.9,25.3,21.9z M19.2,20.7c-0.7,0.3-1.3,0.7-1.8,1.3l5-0.1h2.2c-0.5-0.6-1.2-1-1.9-1.3h-0.4
	L19.2,20.7z M16.9,22.1h0.5c0.5-0.6,1.1-1.1,1.8-1.4h-2.3h-0.1c-0.3,0.3-0.6,0.7-0.9,1.1C16.2,22,16.6,22,16.9,22.1L16.9,22.1
	L16.9,22.1z M29.7,16.3c0,0,0-0.1,0-0.1c0-0.6,0.3-1.2,0.8-1.6l0,0c-0.6-0.5-1.3-0.9-2-1.1c-0.7-0.2-1.5-0.3-2.3-0.2
	c-0.8,0.1-1.5,0.4-2.1,0.7c-0.6,0.4-1.2,0.9-1.7,1.5c-0.2-0.8-0.5-1.6-1-2.3c-0.5-0.7-1.1-1.3-1.8-1.7c-1-0.6-2.1-1-3.2-1.2
	c-0.9-0.1-1.9-0.1-2.8,0.1c0,0.2,0.1,0.4,0.1,0.6c0,0.4-0.1,0.7-0.3,1l0.1,0.1c0.9,0.4,1.7,1,2.2,1.7c0.6,0.7,1,1.6,1.2,2.6
	c-0.9-0.4-1.9-0.5-2.9-0.4c-1,0.1-1.9,0.5-2.7,1.1c-0.5,0.3-0.9,0.8-1.3,1.3c-0.2,0.3-0.3,0.7-0.5,1c0.5,0.3,0.8,0.8,0.9,1.4l0.1,0
	l0.3-0.1c1.1-0.5,1.9-0.6,2.7-0.5c0.8,0.2,1.4,0.7,2.2,1.6c0,0.1,0.1,0.1,0.2,0.2c0.1,0,0.1,0.1,0.2,0.1c0.1-0.2,0.3-0.4,0.4-0.6
	c0.1-0.2,0.3-0.4,0.5-0.5h-0.1h-0.1c-0.4-0.6-1-1.1-1.7-1.5c-0.7-0.4-1.4-0.6-2.1-0.6c-0.3,0-0.6,0-0.9,0.1s-0.6,0.1-0.8,0.2
	c0.1-0.2,0.2-0.3,0.4-0.4s0.3-0.3,0.4-0.4c0.6-0.5,1.4-0.8,2.1-0.9c0.8-0.1,1.6,0,2.3,0.3c0.1,0,0.2,0.1,0.4,0.1c0.1,0,0.2,0,0.4,0
	h0.1h0.1c0.1,0,0.2,0,0.3,0c0.1,0,0.2-0.1,0.2-0.1c0.1-0.1,0.1-0.2,0.2-0.3s0.1-0.2,0-0.3v-0.1v-0.1c0-0.1,0-0.3,0-0.4s0-0.3,0-0.4
	c-0.2-0.9-0.5-1.8-1-2.5c-0.5-0.8-1.1-1.4-1.9-2c0.6,0,1.3,0.1,1.9,0.3c0.6,0.2,1.2,0.4,1.7,0.8c0.6,0.4,1.1,0.9,1.5,1.5
	c0.4,0.6,0.7,1.3,0.8,2c0,0.2,0.1,0.3,0.2,0.4s0.2,0.3,0.3,0.4c0.1,0.1,0.1,0.1,0.2,0.2c0.1,0,0.2,0.1,0.3,0.1c0.1,0,0.2,0,0.3,0
	c0.1,0,0.2-0.1,0.2-0.1l0.1-0.1l0.1-0.1c0.1-0.1,0.2-0.1,0.3-0.2c0.1-0.1,0.2-0.2,0.3-0.3c0.3-0.5,0.8-0.9,1.3-1.3
	c0.5-0.3,1.1-0.5,1.7-0.6c0.5-0.1,0.9,0,1.4,0c0.4,0.1,0.9,0.3,1.3,0.5c-1.1,0.4-2.1,1.1-2.8,1.9c-0.7,0.9-1.2,2-1.4,3.2
	c0.2,0.2,0.5,0.4,0.7,0.6c0.2,0.2,0.4,0.4,0.6,0.6c0,0,0,0,0-0.1c0,0,0-0.1,0-0.1c0.1-1.4,0.4-2.5,1.2-3.4
	C27.8,17.2,28.6,16.7,29.7,16.3z M24.8,20.2c0,0.1,0,0.2-0.1,0.4h-0.4h-1.6c0.7,0.3,1.4,0.7,1.9,1.3h0.7c0.3,0,0.6-0.2,0.7-0.4
	C25.6,21,25.2,20.6,24.8,20.2z M20,40C9,40,0,31,0,20S9,0,20,0s20,9,20,20S31,40,20,40z M20,1.5C9.8,1.5,1.5,9.8,1.5,20
	S9.8,38.5,20,38.5S38.5,30.2,38.5,20C38.5,9.8,30.2,1.5,20,1.5z M8.4,23.1L8.4,23.1c-1.1,0-2-0.9-2-2c0-0.6,0.2-1.1,0.7-1.5
	C7.4,19.2,7.9,19,8.4,19c1.1,0,2,0.9,2,2c0,0,0,0,0,0.1C10.4,22.2,9.5,23.1,8.4,23.1z M8.4,20.3c-0.2,0-0.4,0.1-0.5,0.2
	c-0.1,0.1-0.2,0.3-0.2,0.5c0,0.4,0.3,0.7,0.7,0.7l0,0c0.4,0,0.7-0.2,0.7-0.6c0,0,0-0.1,0-0.1l0,0C9.1,20.7,8.8,20.4,8.4,20.3
	C8.4,20.3,8.4,20.3,8.4,20.3L8.4,20.3L8.4,20.3z M11.5,12.9L11.5,12.9c-1.1,0-2-0.9-2-2c0-0.6,0.2-1.1,0.6-1.5
	c0.8-0.8,2-0.8,2.8-0.1c0.4,0.4,0.6,1,0.6,1.6C13.5,12,12.6,12.9,11.5,12.9C11.5,12.9,11.5,12.9,11.5,12.9z M11.5,10.1
	c-0.4,0-0.7,0.3-0.7,0.7c0,0.4,0.3,0.7,0.7,0.7c0,0,0,0,0,0l0,0c0.4,0,0.7-0.2,0.7-0.6c0,0,0-0.1,0-0.1l0,0
	C12.2,10.5,11.9,10.2,11.5,10.1C11.5,10.1,11.5,10.1,11.5,10.1L11.5,10.1L11.5,10.1z M31.7,18.2L31.7,18.2c-1.1,0-2-0.9-2-2
	c0-1.2,1-2.1,2.1-2.1c1.1,0,2,0.9,2,2c0,0,0,0,0,0.1C33.8,17.3,32.9,18.2,31.7,18.2C31.8,18.2,31.8,18.2,31.7,18.2z M31.7,15.4
	c-0.4,0-0.7,0.3-0.7,0.7c0,0.4,0.3,0.7,0.7,0.7c0,0,0,0,0,0l0,0c0.4,0,0.7-0.2,0.7-0.6c0,0,0-0.1,0-0.1l0,0
	C32.4,15.8,32.2,15.4,31.7,15.4C31.8,15.4,31.8,15.4,31.7,15.4L31.7,15.4L31.7,15.4z"/>
</svg>
