<svg id="Layer_1" data-name="Layer 1" xmlns="http://www.w3.org/2000/svg" viewBox="0 0 40 40"><defs><style>.cls-1{fill:#ef4245;}</style></defs><title>toxicity</title><path class="cls-1" d="M20,40A20,20,0,1,1,40,20,20,20,0,0,1,20,40ZM20,1.45A18.55,18.55,0,1,0,38.55,20,18.58,18.58,0,0,0,20,1.45Z"/><path class="cls-1" d="M20.16,9a12.28,12.28,0,0,1,8.19,2.82,9.69,9.69,0,0,1,3.5,6.22,9,9,0,0,1-1.36,6.18A11.08,11.08,0,0,1,24.05,29a12.71,12.71,0,0,1-8.12-.34,0.44,0.44,0,0,0-.38,0c-1.23.56-2.45,1.13-3.68,1.68a1.17,1.17,0,0,1-1.67-.85,3.34,3.34,0,0,1,0-.85c0.15-1.32.31-2.64,0.46-4a0.32,0.32,0,0,0-.06-0.19,9.49,9.49,0,0,1-1.47-3.74,9.15,9.15,0,0,1,0-3.21,9.67,9.67,0,0,1,3.11-5.44,11.62,11.62,0,0,1,6-2.89C19.07,9.09,19.79,9.06,20.16,9ZM11.82,28.64L12,28.55,15.48,27a0.47,0.47,0,0,1,.44,0,10.74,10.74,0,0,0,7.48.59,9.43,9.43,0,0,0,5.68-4.06,7.49,7.49,0,0,0,1.09-5.73,8.42,8.42,0,0,0-3.73-5.39,10.34,10.34,0,0,0-5-1.74,10.93,10.93,0,0,0-4.21.43,9.57,9.57,0,0,0-5,3.48,7.84,7.84,0,0,0,0,9.38,0.58,0.58,0,0,1,.15.33c-0.11,1-.23,2.09-0.35,3.13Z"/><path class="cls-1" d="M16.09,21.79a0.49,0.49,0,1,1,.14.35A0.47,0.47,0,0,1,16.09,21.79Zm0.83-1.07H16.21V17h0.71v3.75Z"/><path class="cls-1" d="M18.51,20.72H17.8V20.14h0.79l0.15-1.07H18V18.49h0.79L19,17h0.58L19.4,18.49h0.87L20.48,17h0.58l-0.21,1.52h0.71v0.58H20.77l-0.15,1.07h0.71v0.58H20.54l-0.21,1.52H19.75L20,20.72H19.09l-0.21,1.52H18.3Zm0.81-1.65-0.15,1.07H20l0.15-1.07H19.32Z"/><path class="cls-1" d="M23.31,20.76V20.31a1.6,1.6,0,0,1,0-.33,0.91,0.91,0,0,1,.09-0.24,1,1,0,0,1,.16-0.21l0.25-.24,0.24-.23a2.37,2.37,0,0,0,.21-0.24,1.27,1.27,0,0,0,.16-0.26,0.73,0.73,0,0,0,.06-0.31,0.79,0.79,0,0,0-.06-0.32,0.81,0.81,0,0,0-.17-0.25A0.75,0.75,0,0,0,24,17.52a0.8,0.8,0,0,0-.31-0.06,0.79,0.79,0,0,0-.59.23,1,1,0,0,0-.27.6l-0.76-.07a1.57,1.57,0,0,1,.54-1,1.66,1.66,0,0,1,1.1-.37,1.79,1.79,0,0,1,.58.09,1.41,1.41,0,0,1,.47.27,1.24,1.24,0,0,1,.32.43,1.42,1.42,0,0,1,.12.58,1.37,1.37,0,0,1-.08.49,1.51,1.51,0,0,1-.23.4l-0.45.46-0.07.07-0.19.19a0.68,0.68,0,0,0-.11.16,0.64,0.64,0,0,0-.06.19,1.75,1.75,0,0,0,0,.26v0.33H23.31Zm-0.14,1a0.49,0.49,0,1,1,.14.35A0.47,0.47,0,0,1,23.17,21.79Z"/></svg>