<svg xmlns="http://www.w3.org/2000/svg" viewBox="0 0 13 13"><title>twitter_comment</title><g id="Layer_2" data-name="Layer 2"><g id="Layer_1-2" data-name="Layer 1"><path d="M7.87,0H5.13A5.08,5.08,0,0,0,0,5.14,4.87,4.87,0,0,0,4.91,10v2.52a.56.56,0,0,0,.08.27.49.49,0,0,0,.68.15C5.85,12.81,9.93,10.2,11,9.3a5.56,5.56,0,0,0,2-4.15h0A5.08,5.08,0,0,0,7.87,0Zm2.49,8.54c-.75.63-3.2,2.24-4.46,3.06V9.5A.49.49,0,0,0,5.41,9H5.15A3.89,3.89,0,0,1,1,5.14,4.1,4.1,0,0,1,5.13,1H7.86A4.1,4.1,0,0,1,12,5.14,4.56,4.56,0,0,1,10.36,8.54Z"/></g></g></svg>