<svg id="Layer_1" data-name="Layer 1" xmlns="http://www.w3.org/2000/svg" viewBox="0 0 40 40"><defs><style>.cls-1{fill:#ef4245;}</style></defs><title>virality</title><path class="cls-1" d="M20,40A20,20,0,1,1,40,20,20,20,0,0,1,20,40ZM20,1.45A18.55,18.55,0,1,0,38.55,20,18.58,18.58,0,0,0,20,1.45Z"/><path class="cls-1" d="M17.08,20.51l-1.87,1.74L10.12,27a1.49,1.49,0,0,1-.42.29,0.8,0.8,0,0,1-1-.28,0.85,0.85,0,0,1,.11-1c0.59-.56,1.19-1.11,1.79-1.67L16.37,19a0.84,0.84,0,0,1,1.29,0l3.59,2.69,7.31-7.28h-2.8A0.85,0.85,0,0,1,25,13.95a0.82,0.82,0,0,1,.6-1.25h4.88a0.85,0.85,0,0,1,.92.9q0,2.36,0,4.73a0.84,0.84,0,0,1-.82.87,0.83,0.83,0,0,1-.8-0.88q0-1.29,0-2.58c0-.07,0-0.14,0-0.26l-0.21.2q-3.72,3.72-7.44,7.45a1.09,1.09,0,0,1-1.46.09C19.49,22.27,18.28,21.41,17.08,20.51Z"/></svg>